<?xml version="1.0" standalone="no"?>
<!DOCTYPE svg PUBLIC "-//W3C//DTD SVG 20010904//EN"
 "http://www.w3.org/TR/2001/REC-SVG-20010904/DTD/svg10.dtd">
<svg version="1.0" xmlns="http://www.w3.org/2000/svg"
 width="805.000000pt" height="763.000000pt" viewBox="0 0 805.000000 763.000000"
 preserveAspectRatio="xMidYMid meet">

<g transform="translate(0.000000,763.000000) scale(0.100000,-0.100000)"
fill="#000000" stroke="none">
<path d="M2190 6767 l0 -852 375 -217 375 -216 0 419 c0 230 2 419 4 419 1 0
245 -140 541 -311 295 -170 543 -308 549 -306 6 3 250 143 541 311 l530 306 5
-418 5 -418 373 215 372 215 0 853 c0 469 -2 853 -4 853 -2 0 -410 -235 -907
-522 -497 -287 -913 -522 -924 -522 -11 0 -427 235 -923 522 -497 287 -906
522 -908 522 -2 0 -4 -384 -4 -853z"/>
<path d="M0 5928 l0 -434 1826 -1055 c1004 -579 1830 -1055 1835 -1057 5 -2 9
174 9 430 l-1 433 -1782 1028 c-980 565 -1806 1042 -1834 1058 l-53 31 0 -434z"/>
<path d="M6213 5302 l-1832 -1057 -1 -1278 0 -1279 33 20 c83 50 2878 1662
2882 1662 3 0 4 -183 3 -407 l-3 -408 -135 -78 c-74 -42 -729 -420 -1455 -840
l-1320 -762 -3 -433 c-1 -265 1 -432 7 -430 5 1 831 477 1835 1057 l1826 1054
0 1274 c0 700 -2 1273 -5 1273 -6 0 -2849 -1640 -2892 -1668 l-23 -14 0 410 0
410 1460 842 1460 843 0 434 c0 238 -1 433 -2 433 -2 -1 -827 -476 -1835
-1058z"/>
<path d="M2 4238 l3 -432 1815 -1048 c998 -577 1823 -1053 1833 -1059 16 -9
17 14 17 425 l0 434 -1829 1056 c-1006 581 -1832 1056 -1835 1056 -4 0 -5
-194 -4 -432z"/>
<path d="M0 2558 l0 -434 423 -244 c2183 -1261 3240 -1870 3243 -1870 2 0 4
195 4 433 l-1 432 -1782 1028 c-980 565 -1806 1042 -1834 1058 l-53 31 0 -434z"/>
</g>
</svg>
